<svg width="80" height="70" viewBox="0 0 80 70" fill="none" xmlns="http://www.w3.org/2000/svg">
<path d="M22.7282 9.47637C24.0811 0.715198 24.983 0 33.6414 0C38.3314 0 42.9311 0 47.6211 0C55.3776 0 56.8206 1.2516 57.8127 9.47637C62.7733 9.47637 67.824 9.47637 72.7846 9.47637C78.5568 9.56577 79.9097 10.9068 79.9999 16.6284C79.9999 32.0945 79.9999 47.6501 79.9999 63.1162C79.9999 68.4802 78.4666 69.9106 72.965 69.9106C51.0484 69.9106 29.1318 69.9106 7.12504 69.9106C1.62335 69.9106 0.0900879 68.3908 0.0900879 63.1162C0.0900879 47.4713 0.0900879 31.8263 0.0900879 16.1814C0.0900879 11.0856 1.62335 9.56577 6.85446 9.47637C11.9954 9.47637 17.2265 9.47637 22.7282 9.47637ZM2.34488 27.1775C2.34488 38.9783 2.34488 51.4943 2.34488 64.0102C2.34488 67.6756 4.78005 67.9438 7.4858 67.9438C29.1318 67.9438 50.7778 67.8544 72.4238 67.9438C76.302 67.9438 77.7451 66.6028 77.6549 62.7586C77.4745 51.7625 77.5647 40.6769 77.5647 29.6807C77.5647 28.6973 77.2941 27.6245 77.2941 27.6245C72.4238 30.5747 67.6436 33.4355 62.9537 36.4751C62.0518 37.1009 60.9695 38.4419 60.9695 39.4253C61.0596 43.3589 58.9852 43.8953 55.6482 44.1635C50.5072 44.6105 50.3268 41.2133 49.9661 37.8161C43.2919 37.8161 36.8883 37.8161 30.5749 37.8161C30.3945 38.4419 30.2141 38.7101 30.2141 38.9783C30.3945 42.3755 29.1318 44.2529 25.2536 44.0741C21.8263 43.9847 19.3009 43.6271 19.5715 39.2465C19.6617 38.3525 18.6696 37.1009 17.8578 36.6539C12.8071 33.4355 7.66619 30.3959 2.34488 27.1775ZM61.0596 34.4189C70.9807 31.3793 77.204 24.3167 77.5647 16.2708C77.6549 13.41 76.9334 11.7114 73.6865 11.7114C51.1386 11.8008 28.6808 11.7114 6.13293 11.8902C4.87025 11.8902 2.79584 13.5888 2.52526 14.751C1.0822 22.8863 10.6425 33.7037 19.4813 33.8825C19.6617 31.3793 19.6617 29.0549 23.4497 28.7867C28.4103 28.3397 30.6651 30.2171 30.5749 34.8659C37.3392 34.8659 43.7429 34.8659 50.1465 34.8659C50.417 31.7369 50.1465 28.7867 54.5658 28.7867C58.4441 28.7867 61.5106 29.1443 61.0596 34.4189ZM54.5658 9.29757C55.1972 3.66539 54.0247 2.14559 49.2445 2.05619C43.2919 1.96679 37.2491 1.96679 31.2964 2.05619C26.2457 2.14559 24.8928 4.02299 26.2457 9.29757C35.5354 9.29757 44.9153 9.29757 54.5658 9.29757ZM27.6887 41.3921C27.6887 38.5313 27.9593 36.1175 27.5985 33.8825C27.4182 32.8097 25.8849 31.4687 24.7124 31.2899C23.9909 31.1111 22.2772 32.7203 22.0969 33.7037C21.7361 36.2069 22.0067 38.8889 22.0067 41.4815C24.1713 41.3921 25.6143 41.3921 27.6887 41.3921ZM52.8522 41.3027C54.9266 41.3027 56.4599 41.3027 57.9931 41.3027C58.1735 40.5875 58.3539 40.1405 58.3539 39.6935C58.4441 38.2631 58.4441 36.7433 58.4441 35.2235C58.3539 30.6641 57.9931 30.3959 52.8522 31.7369C52.8522 34.8659 52.8522 37.9055 52.8522 41.3027Z" fill="white"/>
</svg>
