<svg width="545" height="281" viewBox="0 0 545 281" fill="none" xmlns="http://www.w3.org/2000/svg">
<g opacity="0.4" filter="url(#filter0_f_304_353)">
<g filter="url(#filter1_d_304_353)">
<rect x="90.9583" y="119.405" width="363.265" height="41.571" rx="6.58984" fill="#EC703B"/>
<path d="M119.947 150.391C120.512 150.586 120.953 150.892 121.268 151.309C121.593 151.717 121.755 152.195 121.755 152.742C121.755 153.336 121.56 153.851 121.171 154.287C120.781 154.722 120.253 155.056 119.585 155.288C118.926 155.52 118.203 155.636 117.415 155.636C116.747 155.636 116.079 155.553 115.411 155.386C114.753 155.219 114.126 154.964 113.533 154.62L114.229 153.007C114.655 153.266 115.124 153.466 115.634 153.605C116.153 153.735 116.659 153.8 117.15 153.8C117.818 153.8 118.37 153.679 118.806 153.438C119.251 153.197 119.474 152.858 119.474 152.422C119.474 152.061 119.321 151.787 119.014 151.601C118.718 151.416 118.31 151.323 117.79 151.323H115.411V149.626H117.623C118.078 149.626 118.43 149.533 118.681 149.348C118.94 149.162 119.07 148.907 119.07 148.582C119.07 148.202 118.885 147.905 118.514 147.692C118.152 147.479 117.683 147.372 117.108 147.372C116.682 147.372 116.241 147.432 115.787 147.553C115.332 147.664 114.901 147.836 114.493 148.068L113.811 146.315C114.841 145.786 115.954 145.522 117.15 145.522C117.911 145.522 118.611 145.633 119.251 145.855C119.891 146.078 120.401 146.403 120.781 146.829C121.162 147.256 121.352 147.752 121.352 148.318C121.352 148.782 121.227 149.195 120.976 149.556C120.726 149.918 120.383 150.196 119.947 150.391ZM130.134 153.382H125.613L124.75 155.469H122.44L126.781 145.73H129.007L133.362 155.469H130.997L130.134 153.382ZM129.425 151.671L127.88 147.942L126.336 151.671H129.425ZM138.869 145.73C139.732 145.73 140.478 145.874 141.109 146.162C141.749 146.449 142.24 146.857 142.584 147.386C142.927 147.915 143.098 148.541 143.098 149.264C143.098 149.978 142.927 150.604 142.584 151.142C142.24 151.671 141.749 152.079 141.109 152.367C140.478 152.645 139.732 152.784 138.869 152.784H136.907V155.469H134.653V145.73H138.869ZM138.744 150.948C139.421 150.948 139.936 150.804 140.288 150.516C140.64 150.219 140.817 149.802 140.817 149.264C140.817 148.717 140.64 148.299 140.288 148.012C139.936 147.715 139.421 147.567 138.744 147.567H136.907V150.948H138.744ZM152.126 153.66V155.469H144.585V145.73H151.945V147.539H146.825V149.654H151.347V151.407H146.825V153.66H152.126ZM160.805 147.567H156.172L156.186 155.469H153.946V145.73H160.819L160.805 147.567ZM162.193 145.73H164.433V152.074L169.08 145.73H171.195V155.469H168.969V149.139L164.322 155.469H162.193V145.73ZM178.225 155.636C177.232 155.636 176.333 155.423 175.526 154.996C174.728 154.56 174.097 153.962 173.634 153.201C173.179 152.432 172.952 151.564 172.952 150.6C172.952 149.635 173.179 148.772 173.634 148.012C174.097 147.242 174.728 146.644 175.526 146.217C176.333 145.781 177.237 145.563 178.239 145.563C179.083 145.563 179.843 145.712 180.52 146.009C181.207 146.305 181.782 146.732 182.246 147.288L180.799 148.624C180.14 147.864 179.324 147.483 178.35 147.483C177.747 147.483 177.209 147.618 176.736 147.887C176.263 148.146 175.892 148.513 175.623 148.986C175.363 149.459 175.234 149.997 175.234 150.6C175.234 151.203 175.363 151.741 175.623 152.214C175.892 152.687 176.263 153.058 176.736 153.327C177.209 153.586 177.747 153.716 178.35 153.716C179.324 153.716 180.14 153.331 180.799 152.561L182.246 153.897C181.782 154.463 181.207 154.894 180.52 155.191C179.834 155.488 179.069 155.636 178.225 155.636ZM191.063 147.567H187.946V155.469H185.72V147.567H182.618V145.73H191.063V147.567ZM196.693 145.73C197.556 145.73 198.303 145.874 198.933 146.162C199.573 146.449 200.065 146.857 200.408 147.386C200.751 147.915 200.923 148.541 200.923 149.264C200.923 149.978 200.751 150.604 200.408 151.142C200.065 151.671 199.573 152.079 198.933 152.367C198.303 152.645 197.556 152.784 196.693 152.784H194.732V155.469H192.478V145.73H196.693ZM196.568 150.948C197.245 150.948 197.76 150.804 198.113 150.516C198.465 150.219 198.641 149.802 198.641 149.264C198.641 148.717 198.465 148.299 198.113 148.012C197.76 147.715 197.245 147.567 196.568 147.567H194.732V150.948H196.568ZM202.41 145.73H204.65V152.074L209.296 145.73H211.411V155.469H209.185V149.139L204.538 155.469H202.41V145.73ZM218.052 145.73C218.914 145.73 219.661 145.874 220.291 146.162C220.931 146.449 221.423 146.857 221.766 147.386C222.109 147.915 222.281 148.541 222.281 149.264C222.281 149.978 222.109 150.604 221.766 151.142C221.423 151.671 220.931 152.079 220.291 152.367C219.661 152.645 218.914 152.784 218.052 152.784H216.09V155.469H213.836V145.73H218.052ZM217.926 150.948C218.603 150.948 219.118 150.804 219.471 150.516C219.823 150.219 219.999 149.802 219.999 149.264C219.999 148.717 219.823 148.299 219.471 148.012C219.118 147.715 218.603 147.567 217.926 147.567H216.09V150.948H217.926ZM228.55 155.636C227.54 155.636 226.626 155.418 225.81 154.982C225.003 154.546 224.367 153.948 223.904 153.187C223.449 152.418 223.222 151.555 223.222 150.6C223.222 149.644 223.449 148.786 223.904 148.026C224.367 147.256 225.003 146.653 225.81 146.217C226.626 145.781 227.54 145.563 228.55 145.563C229.561 145.563 230.47 145.781 231.277 146.217C232.084 146.653 232.72 147.256 233.183 148.026C233.647 148.786 233.879 149.644 233.879 150.6C233.879 151.555 233.647 152.418 233.183 153.187C232.72 153.948 232.084 154.546 231.277 154.982C230.47 155.418 229.561 155.636 228.55 155.636ZM228.55 153.716C229.126 153.716 229.645 153.586 230.109 153.327C230.572 153.058 230.934 152.687 231.194 152.214C231.463 151.741 231.597 151.203 231.597 150.6C231.597 149.997 231.463 149.459 231.194 148.986C230.934 148.513 230.572 148.146 230.109 147.887C229.645 147.618 229.126 147.483 228.55 147.483C227.975 147.483 227.456 147.618 226.992 147.887C226.529 148.146 226.162 148.513 225.893 148.986C225.633 149.459 225.504 149.997 225.504 150.6C225.504 151.203 225.633 151.741 225.893 152.214C226.162 152.687 226.529 153.058 226.992 153.327C227.456 153.586 227.975 153.716 228.55 153.716ZM242.363 150.391C242.957 150.567 243.411 150.855 243.726 151.254C244.042 151.652 244.199 152.144 244.199 152.728C244.199 153.591 243.87 154.263 243.212 154.746C242.562 155.228 241.63 155.469 240.415 155.469H235.615V145.73H240.151C241.282 145.73 242.164 145.948 242.794 146.384C243.425 146.82 243.74 147.442 243.74 148.248C243.74 148.731 243.62 149.157 243.379 149.528C243.137 149.89 242.799 150.178 242.363 150.391ZM237.855 149.765H239.956C240.448 149.765 240.819 149.668 241.069 149.473C241.319 149.269 241.445 148.972 241.445 148.582C241.445 148.202 241.315 147.91 241.055 147.706C240.805 147.502 240.438 147.4 239.956 147.4H237.855V149.765ZM240.332 153.8C241.389 153.8 241.918 153.382 241.918 152.547C241.918 151.741 241.389 151.337 240.332 151.337H237.855V153.8H240.332ZM252.576 153.382H248.055L247.192 155.469H244.883L249.224 145.73H251.45L255.804 155.469H253.439L252.576 153.382ZM251.867 151.671L250.323 147.942L248.778 151.671H251.867ZM264.05 147.567H260.933V155.469H258.707V147.567H255.605V145.73H264.05V147.567ZM270.181 148.93C271.369 148.93 272.278 149.195 272.908 149.723C273.548 150.252 273.868 151.036 273.868 152.074C273.868 153.178 273.516 154.022 272.811 154.607C272.115 155.182 271.132 155.469 269.861 155.469H265.465V145.73H267.705V148.93H270.181ZM269.736 153.8C270.321 153.8 270.775 153.656 271.1 153.368C271.434 153.081 271.601 152.663 271.601 152.116C271.601 151.105 270.979 150.6 269.736 150.6H267.705V153.8H269.736ZM280.097 155.636C279.105 155.636 278.205 155.423 277.398 154.996C276.6 154.56 275.97 153.962 275.506 153.201C275.051 152.432 274.824 151.564 274.824 150.6C274.824 149.635 275.051 148.772 275.506 148.012C275.97 147.242 276.6 146.644 277.398 146.217C278.205 145.781 279.109 145.563 280.111 145.563C280.955 145.563 281.716 145.712 282.393 146.009C283.079 146.305 283.654 146.732 284.118 147.288L282.671 148.624C282.012 147.864 281.196 147.483 280.222 147.483C279.619 147.483 279.081 147.618 278.608 147.887C278.135 148.146 277.764 148.513 277.495 148.986C277.236 149.459 277.106 149.997 277.106 150.6C277.106 151.203 277.236 151.741 277.495 152.214C277.764 152.687 278.135 153.058 278.608 153.327C279.081 153.586 279.619 153.716 280.222 153.716C281.196 153.716 282.012 153.331 282.671 152.561L284.118 153.897C283.654 154.463 283.079 154.894 282.393 155.191C281.706 155.488 280.941 155.636 280.097 155.636ZM293.174 145.73V155.469H290.948V152.881H288.889L287.163 155.469H284.784L286.816 152.534C286.157 152.265 285.652 151.861 285.299 151.323C284.947 150.776 284.77 150.122 284.77 149.361C284.77 148.61 284.942 147.966 285.285 147.428C285.628 146.88 286.115 146.463 286.746 146.175C287.377 145.879 288.119 145.73 288.972 145.73H293.174ZM289.028 147.567C288.388 147.567 287.896 147.715 287.553 148.012C287.219 148.309 287.052 148.749 287.052 149.334C287.052 149.899 287.214 150.335 287.539 150.641C287.864 150.948 288.341 151.101 288.972 151.101H290.948V147.567H289.028ZM308.486 145.73V155.469H306.232V151.476H301.808V155.469H299.554V145.73H301.808V149.57H306.232V145.73H308.486ZM317.52 153.382H312.999L312.136 155.469H309.827L314.167 145.73H316.393L320.748 155.469H318.383L317.52 153.382ZM316.811 151.671L315.266 147.942L313.722 151.671H316.811ZM330.585 155.636C329.592 155.636 328.693 155.423 327.886 154.996C327.088 154.56 326.457 153.962 325.994 153.201C325.539 152.432 325.312 151.564 325.312 150.6C325.312 149.635 325.539 148.772 325.994 148.012C326.457 147.242 327.088 146.644 327.886 146.217C328.693 145.781 329.597 145.563 330.599 145.563C331.443 145.563 332.203 145.712 332.88 146.009C333.567 146.305 334.142 146.732 334.606 147.288L333.159 148.624C332.5 147.864 331.684 147.483 330.71 147.483C330.107 147.483 329.569 147.618 329.096 147.887C328.623 148.146 328.252 148.513 327.983 148.986C327.723 149.459 327.594 149.997 327.594 150.6C327.594 151.203 327.723 151.741 327.983 152.214C328.252 152.687 328.623 153.058 329.096 153.327C329.569 153.586 330.107 153.716 330.71 153.716C331.684 153.716 332.5 153.331 333.159 152.561L334.606 153.897C334.142 154.463 333.567 154.894 332.88 155.191C332.194 155.488 331.429 155.636 330.585 155.636ZM343.615 153.66V155.469H336.075V145.73H343.434V147.539H338.314V149.654H342.836V151.407H338.314V153.66H343.615ZM354.298 155.469L354.284 149.64L351.418 154.44H350.416L347.55 149.751V155.469H345.436V145.73H347.3L350.945 151.782L354.535 145.73H356.399L356.413 155.469H354.298ZM358.832 145.73H361.072V152.074L365.719 145.73H367.834V155.469H365.607V149.139L360.961 155.469H358.832V145.73ZM379.19 145.73V155.469H376.936V151.476H372.512V155.469H370.258V145.73H372.512V149.57H376.936V145.73H379.19ZM388.225 153.382H383.703L382.841 155.469H380.531L384.872 145.73H387.098L391.453 155.469H389.088L388.225 153.382ZM387.515 151.671L385.971 147.942L384.427 151.671H387.515ZM396.96 145.73C397.822 145.73 398.569 145.874 399.2 146.162C399.84 146.449 400.331 146.857 400.674 147.386C401.018 147.915 401.189 148.541 401.189 149.264C401.189 149.978 401.018 150.604 400.674 151.142C400.331 151.671 399.84 152.079 399.2 152.367C398.569 152.645 397.822 152.784 396.96 152.784H394.998V155.469H392.744V145.73H396.96ZM396.834 150.948C397.512 150.948 398.026 150.804 398.379 150.516C398.731 150.219 398.907 149.802 398.907 149.264C398.907 148.717 398.731 148.299 398.379 148.012C398.026 147.715 397.512 147.567 396.834 147.567H394.998V150.948H396.834Z" fill="white"/>
</g>
<g opacity="0.3">
<ellipse opacity="0.4" cx="265.827" cy="140.46" rx="82.5194" ry="49.6692" fill="white"/>
<ellipse opacity="0.4" cx="265.827" cy="140.46" rx="36.7749" ry="22.1352" fill="white"/>
</g>
</g>
<defs>
<filter id="filter0_f_304_353" x="0.348015" y="0.180717" width="544.485" height="280.559" filterUnits="userSpaceOnUse" color-interpolation-filters="sRGB">
<feFlood flood-opacity="0" result="BackgroundImageFix"/>
<feBlend mode="normal" in="SourceGraphic" in2="BackgroundImageFix" result="shape"/>
<feGaussianBlur stdDeviation="45.3051" result="effect1_foregroundBlur_304_353"/>
</filter>
<filter id="filter1_d_304_353" x="90.9583" y="119.405" width="363.265" height="44.8659" filterUnits="userSpaceOnUse" color-interpolation-filters="sRGB">
<feFlood flood-opacity="0" result="BackgroundImageFix"/>
<feColorMatrix in="SourceAlpha" type="matrix" values="0 0 0 0 0 0 0 0 0 0 0 0 0 0 0 0 0 0 127 0" result="hardAlpha"/>
<feOffset dy="3.29492"/>
<feComposite in2="hardAlpha" operator="out"/>
<feColorMatrix type="matrix" values="0 0 0 0 0.482353 0 0 0 0 0.380392 0 0 0 0 1 0 0 0 1 0"/>
<feBlend mode="normal" in2="BackgroundImageFix" result="effect1_dropShadow_304_353"/>
<feBlend mode="normal" in="SourceGraphic" in2="effect1_dropShadow_304_353" result="shape"/>
</filter>
</defs>
</svg>
