<svg width="603" height="780" viewBox="0 0 603 780" fill="none" xmlns="http://www.w3.org/2000/svg">
<circle cx="549.401" cy="579.652" r="24.1184" transform="rotate(49.6902 549.401 579.652)" stroke="#F7B524" stroke-width="6.11196"/>
<path d="M311.383 540.33C310.819 538.739 309.073 537.906 307.482 538.47C305.891 539.033 305.058 540.779 305.621 542.37L311.383 540.33ZM320.879 585.467C321.443 587.058 323.189 587.892 324.78 587.328C326.371 586.765 327.204 585.019 326.641 583.428L320.879 585.467ZM305.621 542.37L320.879 585.467L326.641 583.428L311.383 540.33L305.621 542.37Z" fill="#077F83"/>
<path d="M336.66 552.389C338.251 551.825 339.997 552.659 340.56 554.25C341.124 555.841 340.291 557.587 338.7 558.15L336.66 552.389ZM295.602 573.408C294.011 573.972 292.265 573.139 291.702 571.548C291.139 569.956 291.972 568.21 293.563 567.647L295.602 573.408ZM338.7 558.15L295.602 573.408L293.563 567.647L336.66 552.389L338.7 558.15Z" fill="#077F83"/>
<path d="M231.679 245.675C231.116 244.084 229.369 243.251 227.778 243.814C226.187 244.378 225.354 246.124 225.918 247.715L231.679 245.675ZM241.176 290.812C241.739 292.403 243.485 293.236 245.076 292.673C246.667 292.11 247.5 290.363 246.937 288.772L241.176 290.812ZM225.918 247.715L241.176 290.812L246.937 288.772L231.679 245.675L225.918 247.715Z" fill="#077F83"/>
<path d="M256.957 257.732C258.548 257.169 260.295 258.002 260.858 259.593C261.421 261.184 260.588 262.93 258.997 263.493L256.957 257.732ZM215.9 278.751C214.309 279.315 212.562 278.482 211.999 276.891C211.436 275.3 212.269 273.553 213.86 272.99L215.9 278.751ZM258.997 263.493L215.9 278.751L213.86 272.99L256.957 257.732L258.997 263.493Z" fill="#077F83"/>
<path d="M359.637 123.178C360.579 121.992 361.749 121.008 363.078 120.283C364.408 119.558 365.869 119.108 367.376 118.959C368.883 118.81 370.405 118.965 371.85 119.416C373.296 119.866 374.636 120.602 375.792 121.581C376.948 122.559 377.895 123.76 378.578 125.111C379.26 126.463 379.664 127.938 379.766 129.449C379.868 130.959 379.665 132.475 379.169 133.906C378.674 135.337 377.896 136.654 376.881 137.778" stroke="#F7B524" stroke-width="5.24034" stroke-linejoin="round"/>
<path d="M324.386 91.379C325.327 90.1932 326.497 89.2086 327.827 88.4838C329.156 87.7591 330.618 87.3088 332.125 87.1598C333.632 87.0108 335.153 87.166 336.599 87.6164C338.045 88.0667 339.385 88.8029 340.541 89.7814C341.696 90.7598 342.644 91.9604 343.326 93.312C344.009 94.6636 344.413 96.1386 344.515 97.6493C344.616 99.1601 344.413 100.676 343.918 102.107C343.422 103.538 342.644 104.854 341.63 105.979" stroke="#F7B524" stroke-width="5.24034" stroke-linejoin="round"/>
<path d="M345.776 103.276C344.743 104.281 343.93 105.49 343.384 106.834C342.839 108.177 342.571 109.631 342.602 111.111C342.633 112.591 342.962 114.066 343.575 115.448C344.188 116.83 345.071 118.088 346.173 119.144C347.274 120.2 348.57 121.031 349.979 121.587C351.389 122.143 352.881 122.413 354.367 122.385C355.852 122.356 357.299 122.031 358.624 121.432C359.949 120.834 361.128 119.974 362.093 118.905" stroke="#F7B524" stroke-width="5.24034" stroke-linejoin="round"/>
<path d="M398.377 355.535C398.272 354.024 398.472 352.508 398.964 351.076C399.457 349.644 400.232 348.326 401.244 347.199C402.255 346.073 403.483 345.161 404.854 344.518C406.225 343.875 407.711 343.514 409.224 343.457C410.738 343.4 412.247 343.647 413.663 344.184C415.078 344.721 416.372 345.537 417.466 346.584C418.56 347.631 419.433 348.886 420.032 350.277C420.632 351.667 420.946 353.164 420.956 354.678" stroke="#F7B524" stroke-width="5.24034" stroke-linejoin="round"/>
<path d="M350.903 355.843C350.799 354.333 350.998 352.817 351.491 351.385C351.983 349.953 352.758 348.634 353.77 347.508C354.782 346.381 356.01 345.47 357.381 344.827C358.752 344.184 360.238 343.823 361.751 343.766C363.264 343.708 364.773 343.955 366.189 344.493C367.605 345.03 368.898 345.846 369.992 346.893C371.086 347.939 371.959 349.195 372.559 350.586C373.158 351.976 373.472 353.473 373.482 354.987" stroke="#F7B524" stroke-width="5.24034" stroke-linejoin="round"/>
<path d="M374.718 350.195C374.634 351.633 374.849 353.074 375.353 354.434C375.857 355.794 376.64 357.048 377.661 358.119C378.682 359.191 379.921 360.058 381.305 360.664C382.69 361.271 384.19 361.604 385.716 361.64C387.242 361.677 388.758 361.416 390.174 360.876C391.59 360.335 392.874 359.528 393.951 358.505C395.028 357.482 395.877 356.265 396.451 354.929C397.026 353.594 397.315 352.164 397.306 350.724" stroke="#F7B524" stroke-width="5.24034" stroke-linejoin="round"/>
<circle cx="129.8" cy="470.512" r="24.1184" transform="rotate(49.6902 129.8 470.512)" stroke="#077F83" stroke-width="6.11196"/>
<path d="M534.09 170.782C535.098 169.927 536.653 170.483 536.889 171.783L545.512 219.187C545.749 220.487 544.489 221.555 543.245 221.11L497.881 204.876C496.637 204.431 496.341 202.806 497.349 201.951L534.09 170.782L532.425 168.818L534.09 170.782Z" stroke="#EF7000" stroke-width="5.14926"/>
</svg>
