<svg width="595" height="709" viewBox="0 0 595 709" fill="none" xmlns="http://www.w3.org/2000/svg">
<circle cx="441.564" cy="645.115" r="33.0845" transform="rotate(49.6902 441.564 645.115)" stroke="#F7B524" stroke-width="6.11196"/>
<path d="M431.417 405.026L451.709 462.343" stroke="#077F83" stroke-width="6.11196" stroke-linecap="round"/>
<path d="M470.222 423.538L412.905 443.831" stroke="#077F83" stroke-width="6.11196" stroke-linecap="round"/>
<path d="M136.981 331.491C138.305 329.824 139.951 328.439 141.821 327.42C143.691 326.4 145.746 325.767 147.866 325.557C149.985 325.348 152.125 325.566 154.158 326.199C156.191 326.833 158.077 327.868 159.702 329.244C161.327 330.62 162.66 332.309 163.62 334.21C164.58 336.111 165.148 338.185 165.291 340.31C165.434 342.435 165.149 344.567 164.452 346.579C163.755 348.592 162.661 350.443 161.234 352.025" stroke="#67EAD2" stroke-width="5.24034" stroke-linejoin="round"/>
<path d="M90.0972 289.2C91.4215 287.532 93.0674 286.147 94.9373 285.128C96.8071 284.109 98.8626 283.475 100.982 283.266C103.101 283.056 105.241 283.275 107.274 283.908C109.308 284.541 111.193 285.577 112.818 286.953C114.444 288.329 115.776 290.018 116.736 291.918C117.696 293.819 118.264 295.894 118.407 298.019C118.55 300.143 118.265 302.275 117.568 304.288C116.871 306.3 115.777 308.152 114.35 309.733" stroke="#67EAD2" stroke-width="5.24034" stroke-linejoin="round"/>
<path d="M118.619 304.94C117.16 306.36 116.011 308.068 115.241 309.965C114.471 311.863 114.094 313.914 114.137 315.997C114.181 318.082 114.645 320.157 115.505 322.098C116.366 324.039 117.606 325.805 119.152 327.287C120.698 328.769 122.516 329.935 124.496 330.716C126.475 331.498 128.573 331.877 130.664 331.837C132.755 331.797 134.795 331.339 136.666 330.494C138.536 329.65 140.201 328.435 141.565 326.923" stroke="#67EAD2" stroke-width="5.24034" stroke-linejoin="round"/>
<path d="M255.833 56.1069L268.179 123.976C268.416 125.276 267.156 126.345 265.912 125.9L200.962 102.657C199.718 102.212 199.423 100.587 200.43 99.7319L253.034 55.1053C254.042 54.2505 255.597 54.807 255.833 56.1069Z" stroke="#9C84F3" stroke-width="5.14926"/>
</svg>
