<svg width="540" height="328" viewBox="0 0 540 328" fill="none" xmlns="http://www.w3.org/2000/svg">
<circle cx="342.895" cy="276.77" r="33.0845" transform="rotate(49.6902 342.895 276.77)" stroke="#F7B524" stroke-width="6.11196"/>
<path d="M22.5122 225.831L42.8046 283.148" stroke="#00A7FF" stroke-width="6.11196" stroke-linecap="round"/>
<path d="M61.3171 244.343L4.00027 264.636" stroke="#00A7FF" stroke-width="6.11196" stroke-linecap="round"/>
<path d="M494.142 85.0181L530.623 133.662" stroke="#EF7000" stroke-width="6.11196" stroke-linecap="round"/>
<path d="M536.704 91.0995L488.061 127.58" stroke="#EF7000" stroke-width="6.11196" stroke-linecap="round"/>
<path d="M325.491 62.1646C326.815 60.4969 328.461 59.1122 330.331 58.0928C332.201 57.0735 334.256 56.4402 336.376 56.2306C338.495 56.021 340.635 56.2394 342.668 56.8728C344.701 57.5062 346.587 58.5416 348.212 59.9177C349.837 61.2938 351.17 62.9824 352.13 64.8833C353.09 66.7842 353.658 68.8587 353.801 70.9835C353.944 73.1083 353.659 75.2402 352.962 77.2526C352.265 79.2649 351.171 81.1167 349.744 82.6981" stroke="#AEC9C4" stroke-width="5.24034" stroke-linejoin="round"/>
<path d="M278.608 19.8731C279.932 18.2054 281.578 16.8207 283.448 15.8013C285.318 14.782 287.373 14.1487 289.492 13.9391C291.612 13.7295 293.752 13.9479 295.785 14.5813C297.818 15.2147 299.703 16.2501 301.329 17.6262C302.954 19.0023 304.286 20.6909 305.246 22.5918C306.207 24.4927 306.775 26.5672 306.918 28.692C307.061 30.8168 306.775 32.9487 306.078 34.9611C305.381 36.9734 304.287 38.8252 302.861 40.4065" stroke="#AEC9C4" stroke-width="5.24034" stroke-linejoin="round"/>
<path d="M307.129 35.6131C305.67 37.0333 304.521 38.7416 303.751 40.6387C302.981 42.5361 302.604 44.5868 302.648 46.6707C302.691 48.755 303.155 50.83 304.016 52.7713C304.877 54.7126 306.116 56.4779 307.662 57.9601C309.208 59.4423 311.026 60.6083 313.006 61.3896C314.985 62.1709 317.084 62.5506 319.175 62.5106C321.265 62.4707 323.306 62.0123 325.176 61.1676C327.046 60.323 328.711 59.1083 330.075 57.5967" stroke="#AEC9C4" stroke-width="5.24034" stroke-linejoin="round"/>
</svg>
