<svg width="87" height="79" viewBox="0 0 87 79" fill="none" xmlns="http://www.w3.org/2000/svg">
<g clip-path="url(#clip0_906_2443)">
<path d="M0.834961 46.959C4.84692 44.7721 7.11008 40.2941 12.3565 42.7934C13.3852 43.3141 15.2369 41.9603 16.6771 41.3355C24.1866 38.2113 32.0048 38.003 38.8972 42.2727C44.2464 45.6052 49.5957 45.9176 55.3565 45.8135C59.1627 45.7093 62.6603 46.1259 64.9235 49.7707C65.4378 50.6039 67.5981 50.708 68.9354 50.4997C73.0503 49.8749 77.1651 48.5211 81.2799 48.4169C83.1316 48.3128 86.012 50.1873 86.7321 51.8535C87.2464 53.1032 85.6005 56.6439 84.1603 57.1646C70.7871 62.5798 57.311 67.5785 43.7321 72.473C41.8804 73.202 39.5144 73.0978 37.457 72.7854C30.4618 71.744 23.6723 71.2233 17.9115 78.4089C11.945 67.4743 6.59573 57.477 0.834961 46.959ZM36.9426 59.3515C36.8397 58.6225 36.7369 57.9977 36.634 57.2687C38.3828 57.0605 40.1316 56.6439 41.8804 56.5398C47.3326 56.4356 52.6819 56.748 58.134 56.3315C59.4713 56.2273 60.7058 54.2487 62.0431 53.1032C60.8086 51.7494 59.7799 49.979 58.2369 49.0418C57.2082 48.4169 55.5622 48.8335 54.122 48.8335C48.3613 49.0418 43.1149 48.4169 37.7656 45.1886C29.9474 40.3982 21.512 41.5438 13.2823 46.5424C15.3397 50.6038 17.8086 54.0404 19.0431 57.8936C22.5407 68.3075 30.4618 70.3902 40.0287 69.5571C43.012 69.3488 46.0981 69.2447 48.7728 68.2033C59.7799 63.9336 70.7871 59.4557 81.6914 54.8735C82.6173 54.457 83.1316 53.3115 83.8517 52.4783C83.646 52.0618 83.4402 51.6452 83.3373 51.2287C76.9594 52.2701 70.3756 52.1659 64.6149 56.1232C63.1747 57.0605 62.0431 59.2474 60.7058 59.2474C52.7847 59.5598 44.8637 59.3515 36.9426 59.3515ZM18.323 72.9937C18.8374 73.0978 19.4546 73.0978 19.9689 73.202C20.4833 71.6399 21.7177 69.7654 21.2034 68.724C17.3972 61.0177 13.1795 53.5197 9.1675 45.9176C8.65314 45.8135 8.03592 45.8135 7.52156 45.7093C7.00721 47.2714 5.77276 49.1459 6.28711 50.1873C10.0933 57.8936 14.311 65.3916 18.323 72.9937Z" fill="white"/>
<path d="M41.5718 18.2166C47.6412 11.8642 52.1675 7.3862 56.3852 2.59582C58.957 -0.215932 60.8086 -0.42421 63.5861 2.49168C69.244 8.21931 69.3469 8.01104 63.689 13.5304C57.6196 19.4663 51.4474 25.4022 45.4809 31.4423C43.1149 33.8375 41.4689 33.9416 39.1029 31.4423C35.5024 27.6933 31.7991 24.0484 27.89 20.5077C25.4211 18.3208 25.6268 16.5504 27.9928 14.5718C28.9187 13.8428 29.8445 13.0097 30.5646 11.9683C33.0335 8.74001 35.3995 9.15656 37.6627 12.1766C38.8971 13.7387 39.823 15.509 41.5718 18.2166ZM59.9857 4.36618C54.0192 10.0938 48.2584 15.7173 42.4976 21.3408C39.3086 18.4249 36.7369 16.238 33.9594 13.6345C32.622 15.3008 31.5933 16.5504 31.079 17.0711C35.0909 21.5491 38.5885 25.5064 41.7775 28.9429C49.1842 21.5491 56.1794 14.5718 63.3804 7.3862C62.4546 6.65723 61.4259 5.61584 59.9857 4.36618Z" fill="white"/>
</g>
<defs>
<clipPath id="clip0_906_2443">
<rect width="86" height="78" fill="white" transform="translate(0.834961 0.408936)"/>
</clipPath>
</defs>
</svg>
