<svg width="82" height="80" viewBox="0 0 82 80" fill="none" xmlns="http://www.w3.org/2000/svg">
<g clip-path="url(#clip0_905_872)">
<path d="M79.935 79.1091C78.135 77.2091 76.135 75.5091 74.635 73.5091C72.635 70.9091 70.9349 70.2091 67.535 71.6091C58.035 75.7091 47.735 72.0091 42.535 63.2091C37.635 54.8091 39.735 43.7091 47.535 37.6091C55.035 31.6091 66.135 32.0091 73.235 38.5091C80.835 45.4091 82.235 56.0091 76.135 64.7091C74.135 67.6091 74.635 69.2091 76.735 71.4091C78.535 73.3091 80.035 75.5091 81.635 77.6091C81.035 78.1091 80.435 78.6091 79.935 79.1091ZM59.735 36.7091C50.535 36.7091 43.035 44.4091 43.035 53.6091C43.035 62.7091 50.835 70.4091 60.035 70.3091C69.135 70.3091 76.835 62.4091 76.735 53.3091C76.635 44.2091 68.935 36.6091 59.735 36.7091Z" fill="white"/>
<path d="M66.4349 31.8088C61.3349 15.7088 51.9349 5.00885 35.2349 4.20885C18.6349 3.30885 8.2349 12.9088 1.5349 27.8088C-0.965097 22.9088 3.6349 14.4088 11.0349 8.30885C23.6349 -1.89115 42.4349 -2.29115 55.0349 7.50885C64.0349 14.6088 69.6349 25.2088 66.4349 31.8088Z" fill="white"/>
<path d="M57.6349 30.509C52.0349 18.709 43.7349 10.709 30.1349 12.809C16.6349 14.909 10.7349 24.309 9.03491 37.309C8.53491 37.209 8.03491 37.109 7.63491 37.109C7.23491 35.809 6.53491 34.509 6.63491 33.209C7.33491 21.309 17.6349 10.709 30.1349 8.909C41.3349 7.209 54.3349 14.609 58.4349 25.209C58.9349 26.509 58.8349 28.109 59.0349 29.509C58.5349 29.809 58.0349 30.109 57.6349 30.509Z" fill="white"/>
<path d="M49.3351 32.009C48.6351 31.009 47.8351 30.109 47.2351 29.109C43.0351 22.609 36.4351 19.709 29.8351 21.409C22.7351 23.309 18.7351 28.809 17.9351 36.809C17.5351 41.009 16.1351 45.209 14.9351 49.209C14.5351 50.409 12.9351 51.109 11.4351 52.409C13.1351 44.109 14.0351 36.609 16.1351 29.509C18.3351 22.209 24.0351 18.209 31.7351 17.509C39.6351 16.909 45.6351 20.009 49.6351 26.809C50.3351 28.009 50.4351 29.709 50.8351 31.209C50.4351 31.509 49.8351 31.809 49.3351 32.009Z" fill="white"/>
<path d="M41.7351 36.9089C41.2351 36.2089 40.5351 35.5089 40.2351 34.6089C38.8351 30.9089 36.2351 28.7089 32.2351 29.6089C28.1351 30.4089 26.9351 33.5089 26.7351 37.4089C26.4351 44.7089 24.6351 51.5089 19.7351 57.2089C18.6351 58.4089 17.1351 59.2089 14.9351 60.8089C15.0351 58.9089 14.8351 58.1089 15.1351 57.8089C21.3351 51.7089 23.2351 44.0089 23.4351 35.6089C23.5351 30.7089 26.5351 27.5089 31.1351 26.3089C35.6351 25.1089 39.4351 26.9089 41.8351 30.7089C42.9351 32.3089 43.0351 34.5089 43.6351 36.5089C43.0351 36.6089 42.4351 36.7089 41.7351 36.9089Z" fill="white"/>
<path d="M19.5349 65.6089C29.1349 57.5089 31.5349 46.3089 32.9349 34.6089C38.3349 43.6089 28.8349 65.6089 19.5349 65.6089Z" fill="white"/>
<path d="M37.6349 61.0089C35.7349 63.8089 33.7349 66.6089 31.8349 69.4089C31.1349 68.9089 30.4349 68.5089 29.7349 68.0089C31.6349 65.2089 33.4349 62.4089 35.3349 59.6089C36.0349 60.1089 36.8349 60.6089 37.6349 61.0089Z" fill="white"/>
<path d="M49.8348 55.609C47.0348 51.609 48.7348 48.509 51.0348 45.809C53.5348 42.909 56.5348 41.009 60.9348 43.109C55.1348 45.409 51.1348 49.109 49.8348 55.609Z" fill="white"/>
</g>
<defs>
<clipPath id="clip0_905_872">
<rect width="80.8" height="78.7" fill="white" transform="translate(0.834961 0.408936)"/>
</clipPath>
</defs>
</svg>
