<svg width="75" height="88" viewBox="0 0 75 88" fill="none" xmlns="http://www.w3.org/2000/svg">
<g clip-path="url(#clip0_906_2382)">
<path d="M34.6723 47.5135C30.0723 43.8135 29.1723 38.9135 31.9723 34.9135C33.8723 32.2135 38.4723 31.2135 41.8723 29.6135C42.9723 29.1135 45.2723 29.4135 45.4723 28.8135C46.9723 24.1135 50.8723 22.9135 55.4723 22.8135C55.4723 22.2135 55.4723 21.6135 55.4723 21.1135C50.0723 19.1135 44.6723 17.2135 39.0723 15.2135C45.6723 11.7135 59.9723 18.8135 67.1723 28.9135C77.9723 44.0135 75.8723 64.9135 62.3723 77.6135C48.8723 90.3135 27.7723 90.9135 13.4723 79.1135C0.8723 68.6135 -4.0277 48.4135 4.1723 36.9135C3.4723 42.4135 2.8723 47.8135 2.1723 53.2135C2.7723 53.4135 3.4723 53.6135 4.0723 53.8135C5.2723 50.7135 6.4723 47.5135 7.6723 44.4135C8.0723 44.5135 8.5723 44.7135 8.9723 44.8135C9.0723 50.2135 7.7723 54.9135 2.1723 58.8135C7.0723 59.4135 10.4723 60.0135 13.7723 60.3135C17.5723 60.6135 18.3723 63.3135 17.3723 65.9135C15.8723 69.4135 16.9723 71.5135 19.3723 73.7135C20.0723 74.3135 20.5723 76.0135 20.1723 76.7135C18.2723 80.1135 20.4723 81.1135 22.8723 82.2135C41.6723 90.6135 63.3723 81.0135 69.8723 61.5135C72.1723 54.6135 68.8723 50.0135 61.6723 49.2135C59.0723 48.9135 56.3723 47.5135 54.0723 46.0135C46.8723 41.5135 41.2723 41.8135 34.6723 47.5135ZM71.4723 49.3135C71.6723 41.5135 68.3723 34.0135 62.5723 27.5135C59.2723 23.7135 51.9723 24.6135 48.8723 28.7135C47.6723 30.2135 45.4723 31.1135 43.5723 31.9135C41.2723 32.8135 38.6723 33.0135 36.5723 34.0135C32.8723 35.7135 32.3723 39.7135 34.9723 43.3135C41.1723 39.5135 48.5723 39.8135 54.8723 43.8135C56.9723 45.1135 59.1723 46.2135 61.4723 46.9135C64.6723 47.8135 67.9723 48.4135 71.4723 49.3135ZM15.5723 78.6135C16.1723 78.3135 16.7723 77.9135 17.3723 77.6135C17.4723 76.8135 17.8723 75.7135 17.4723 75.4135C14.3723 72.4135 13.3723 69.2135 15.0723 65.1135C15.2723 64.6135 14.3723 62.9135 13.8723 62.8135C11.0723 62.3135 8.1723 62.2135 5.3723 62.0135C4.9723 62.6135 4.6723 63.2135 4.2723 63.8135C7.9723 68.7135 11.7723 73.6135 15.5723 78.6135Z" fill="white"/>
<path d="M45.9724 47.6133C49.6724 49.7133 54.5724 52.0133 58.9724 55.1133C60.1724 55.9133 60.4724 59.6133 59.5724 61.2133C57.0724 65.9133 54.1724 70.4133 50.7724 74.5133C49.5724 75.9133 46.4724 76.9133 44.7724 76.4133C43.5724 76.0133 42.1724 72.7133 42.4724 71.1133C43.5724 66.3133 41.7724 64.7133 37.3724 63.3133C35.4724 62.7133 33.6724 59.3133 33.2724 57.0133C32.5724 52.9133 35.3724 50.2133 38.9724 48.7133C40.7724 47.9133 42.6724 48.0133 45.9724 47.6133ZM45.3724 50.2133C43.0724 50.4133 41.7724 50.2133 41.0724 50.7133C39.0724 52.4133 36.5724 54.2133 35.7724 56.5133C34.7724 59.5133 37.1724 61.0133 40.1724 61.8133C44.3724 63.0133 46.6724 65.4133 44.9724 70.3133C44.5724 71.3133 45.6724 72.9133 46.0724 74.2133C47.1724 73.7133 48.6724 73.5133 49.2724 72.7133C52.1724 68.7133 54.8724 64.5133 57.3724 60.2133C57.8724 59.3133 57.5724 56.8133 56.7724 56.4133C52.7724 53.9133 48.5724 51.8133 45.3724 50.2133Z" fill="white"/>
<path d="M14.5723 17.6134C9.67227 17.7134 5.57227 13.6134 5.57227 8.91338C5.57227 4.21338 9.77227 0.213379 14.5723 0.213379C19.2723 0.213379 23.0723 4.01338 23.1723 8.71338C23.3723 13.6134 19.4723 17.6134 14.5723 17.6134ZM12.6723 14.9134C17.9723 14.5134 20.3723 12.6134 20.2723 8.91338C20.1723 5.51338 18.1723 3.41338 14.5723 3.41338C10.7723 3.41338 8.27227 5.51338 8.77227 9.11338C9.17227 11.4134 11.5723 13.4134 12.6723 14.9134Z" fill="white"/>
</g>
<defs>
<clipPath id="clip0_906_2382">
<rect width="73.9" height="87.4" fill="white" transform="translate(0.172363 0.213379)"/>
</clipPath>
</defs>
</svg>
